<svg width="58" height="44" viewBox="0 0 58 44" fill="none" xmlns="http://www.w3.org/2000/svg">
<path d="M3.0898 0.0147048C2.1288 0.168465 1.26824 0.697682 0.697439 1.48593C0.126636 2.27419 -0.107657 3.25691 0.0461026 4.2179C0.199862 5.1789 0.729079 6.03946 1.51733 6.61026C2.30558 7.18107 3.2883 7.41536 4.2493 7.2616H15.1196L15.7719 9.07333L21.7143 27.1906C22.0042 28.1327 23.2362 29.0023 24.1783 29.0023H49.5424C50.557 29.0023 51.7165 28.1327 52.0063 27.1906L57.8763 9.07333C58.1662 8.13123 57.7314 7.2616 56.7168 7.2616H24.5406L21.7868 2.04384C21.4935 1.44495 21.0406 0.938616 20.478 0.580597C19.9154 0.222579 19.2649 0.0267601 18.5982 0.0147048L4.10436 0.0147048C3.8874 -0.0049016 3.66911 -0.0049016 3.45214 0.0147048C3.30734 0.00600069 3.16214 0.00600069 3.01733 0.0147048L3.0898 0.0147048ZM25.99 36.2492C23.9609 36.2492 22.3665 37.8435 22.3665 39.8726C22.3665 41.9018 23.9609 43.4961 25.99 43.4961C28.0191 43.4961 29.6134 41.9018 29.6134 39.8726C29.6134 37.8435 28.0191 36.2492 25.99 36.2492ZM47.7307 36.2492C45.7015 36.2492 44.1072 37.8435 44.1072 39.8726C44.1072 41.9018 45.7015 43.4961 47.7307 43.4961C49.7598 43.4961 51.3541 41.9018 51.3541 39.8726C51.3541 37.8435 49.7598 36.2492 47.7307 36.2492Z" fill="white"/>
</svg>
