<svg width="51" height="51" viewBox="0 0 51 51" fill="none" xmlns="http://www.w3.org/2000/svg">
<path d="M51 25.5C51 11.4495 39.5505 0 25.5 0C11.4495 0 0 11.4495 0 25.5C0 32.895 3.1875 39.5505 8.2365 44.217C8.2365 44.2425 8.2365 44.2425 8.211 44.268C8.466 44.523 8.772 44.727 9.027 44.9565C9.18 45.084 9.3075 45.2115 9.4605 45.3135C9.9195 45.696 10.4295 46.053 10.914 46.41C11.0925 46.5375 11.2455 46.6395 11.424 46.767C11.9085 47.0985 12.4185 47.4045 12.954 47.685C13.1325 47.787 13.3365 47.9145 13.515 48.0165C14.025 48.297 14.5605 48.552 15.1215 48.7815C15.3255 48.8835 15.5295 48.9855 15.7335 49.062C16.2945 49.2915 16.8555 49.4955 17.4165 49.674C17.6205 49.7505 17.8245 49.827 18.0285 49.878C18.6405 50.0565 19.2525 50.2095 19.8645 50.3625C20.043 50.4135 20.2215 50.4645 20.4255 50.49C21.1395 50.643 21.8535 50.745 22.593 50.8215C22.695 50.8215 22.797 50.847 22.899 50.8725C23.766 50.949 24.633 51 25.5 51C26.367 51 27.234 50.949 28.0755 50.8725C28.1775 50.8725 28.2795 50.847 28.3815 50.8215C29.121 50.745 29.835 50.643 30.549 50.49C30.7275 50.4645 30.906 50.388 31.11 50.3625C31.722 50.2095 32.3595 50.082 32.946 49.878C33.15 49.8015 33.354 49.725 33.558 49.674C34.119 49.47 34.7055 49.2915 35.241 49.062C35.445 48.9855 35.649 48.8835 35.853 48.7815C36.3885 48.552 36.924 48.297 37.4595 48.0165C37.6635 47.9145 37.842 47.787 38.0205 47.685C38.5305 47.379 39.0405 47.0985 39.5505 46.767C39.729 46.665 39.882 46.5375 40.0605 46.41C40.5705 46.053 41.055 45.696 41.514 45.3135C41.667 45.186 41.7945 45.0585 41.9475 44.9565C42.228 44.727 42.5085 44.4975 42.7635 44.268C42.7635 44.2425 42.7635 44.2425 42.738 44.217C47.8125 39.5505 51 32.895 51 25.5ZM38.097 38.1735C31.1865 33.5325 19.8645 33.5325 12.903 38.1735C11.781 38.913 10.863 39.78 10.098 40.7235C6.222 36.7965 3.825 31.416 3.825 25.5C3.825 13.5405 13.5405 3.825 25.5 3.825C37.4595 3.825 47.175 13.5405 47.175 25.5C47.175 31.416 44.778 36.7965 40.902 40.7235C40.1625 39.78 39.219 38.913 38.097 38.1735Z" fill="white"/>
<path d="M25.5 12.5707C20.2215 12.5707 15.9375 16.8547 15.9375 22.1332C15.9375 27.3097 19.992 31.5172 25.3725 31.6702H25.8315C30.9825 31.4917 35.037 27.3097 35.0625 22.1332C35.0625 16.8547 30.7785 12.5707 25.5 12.5707Z" fill="white"/>
</svg>
